HIERARCHY
ROOT SpineBase
{
  OFFSET 0.000000 0.000000 0.000000
  CHANNELS 6 Xposition Yposition Zposition Zrotation Xrotation Yrotation
  JOINT SpineMid
  {
    OFFSET 0.000000 27.748392 0.000000
    CHANNELS 3 Zrotation Xrotation Yrotation
    JOINT SpineShoulder
    {
      OFFSET -0.054567 20.591991 -0.690732
      CHANNELS 3 Zrotation Xrotation Yrotation
      JOINT Neck
      {
        OFFSET -0.045912 6.809696 -0.511521
        CHANNELS 3 Zrotation Xrotation Yrotation
        JOINT Head
        {
          OFFSET 5.096206 12.670908 0.657946
          CHANNELS 3 Zrotation Xrotation Yrotation
          End Site
          {
            OFFSET 0 0 0
          }
        }
      }
      JOINT ShoulderLeft
      {
        OFFSET -14.138718 -3.838615 -7.742533
        CHANNELS 3 Zrotation Xrotation Yrotation
        JOINT ElbowLeft
        {
          OFFSET -6.175592 -23.797936 -0.122320
          CHANNELS 3 Zrotation Xrotation Yrotation
          JOINT WristLeft
          {
            OFFSET -0.755856 -18.752503 -4.596811
            CHANNELS 3 Zrotation Xrotation Yrotation
            JOINT HandLeft
            {
              OFFSET 0.837641 -6.607300 -0.325296
              CHANNELS 3 Zrotation Xrotation Yrotation
              JOINT HandTipLeft
              {
                OFFSET -0.899602 -6.542200 -1.295211
                CHANNELS 3 Zrotation Xrotation Yrotation
                End Site
                {
                  OFFSET 0 0 0
                }
              }
              JOINT ThumbLeft
              {
                OFFSET 2.996636 -0.382042 -0.657209
                CHANNELS 3 Zrotation Xrotation Yrotation
                End Site
                {
                  OFFSET 0 0 0
                }
              }
            }
          }
        }
      }
      JOINT ShoulderRight
      {
        OFFSET 14.325220 -5.482164 2.706692
        CHANNELS 3 Zrotation Xrotation Yrotation
        JOINT ElbowRight
        {
          OFFSET 2.269091 -23.868501 3.661709
          CHANNELS 3 Zrotation Xrotation Yrotation
          JOINT WristRight
          {
            OFFSET -0.995443 -24.277395 -4.097366
            CHANNELS 3 Zrotation Xrotation Yrotation
            JOINT HandRight
            {
              OFFSET -1.182564 -7.218269 -0.087802
              CHANNELS 3 Zrotation Xrotation Yrotation
              JOINT HandTipRight
              {
                OFFSET -1.585196 -4.519372 -1.827026
                CHANNELS 3 Zrotation Xrotation Yrotation
                End Site
                {
                  OFFSET 0 0 0
                }
              }
              JOINT ThumbRight
              {
                OFFSET -3.316275 0.941594 -4.471995
                CHANNELS 3 Zrotation Xrotation Yrotation
                End Site
                {
                  OFFSET 0 0 0
                }
              }
            }
          }
        }
      }
    }
  }
  JOINT HipLeft
  {
    OFFSET -6.203534 1.124477 -4.773152
    CHANNELS 3 Zrotation Xrotation Yrotation
    JOINT KneeLeft
    {
      OFFSET -9.943295 -30.912581 5.549522
      CHANNELS 3 Zrotation Xrotation Yrotation
      JOINT AnkleLeft
      {
        OFFSET -4.455397 -31.183548 6.836401
        CHANNELS 3 Zrotation Xrotation Yrotation
        JOINT FootLeft
        {
          OFFSET 2.590059 -2.694204 -14.310830
          CHANNELS 3 Zrotation Xrotation Yrotation
          End Site
          {
            OFFSET 0 0 0
          }
        }
      }
    }
  }
  JOINT HipRight
  {
    OFFSET 5.428439 0.386451 -1.486322
    CHANNELS 3 Zrotation Xrotation Yrotation
    JOINT KneeRight
    {
      OFFSET -7.877547 -32.608469 7.211944
      CHANNELS 3 Zrotation Xrotation Yrotation
      JOINT AnkleRight
      {
        OFFSET -6.259773 -30.102176 6.348591
        CHANNELS 3 Zrotation Xrotation Yrotation
        JOINT FootRight
        {
          OFFSET 2.520173 -3.703716 -11.752875
          CHANNELS 3 Zrotation Xrotation Yrotation
          End Site
          {
            OFFSET 0 0 0
          }
        }
      }
    }
  }
}
MOTION
Frames: 10
Frame Time: 0.033333
39.641255 69.140060 316.274166 -1.108944 1.049740 -18.601137 0.471939 -0.091615 18.592180 0.691139 -0.812092 0.025923 -0.927756 -0.554712 0.265990 0.000000 0.000000 0.000000 -1.955332 1.123712 -0.261215 2.676185 -3.181331 0.236843 -0.707157 2.069893 0.102205 4.865645 -5.233389 -0.021557 0.000000 0.000000 0.000000 0.000000 0.000000 0.000000 27.057685 -6.391353 5.000575 95.497575 77.249611 -120.370212 -14.259803 26.608932 -35.919558 52.241935 -17.325017 34.712751 0.000000 0.000000 0.000000 0.000000 0.000000 0.000000 2.797880 -2.243993 19.435890 -2.184182 0.940349 -0.881011 -2.248155 -18.845206 -9.488323 0.000000 0.000000 0.000000 3.377417 -2.501016 19.537327 -2.162756 1.540974 -0.809254 1.678872 0.455935 -2.820282 0.000000 0.000000 0.000000
39.626857 69.209670 316.163519 -1.059012 1.239769 -19.346966 0.468408 -0.093562 19.341902 0.448814 -0.118448 0.013749 -1.142016 -1.487980 0.296627 0.000000 0.000000 0.000000 -1.862664 0.437362 -0.326523 2.654848 -3.123173 0.308043 -0.095067 0.717355 -0.098068 3.793759 -2.752761 -0.085638 0.000000 0.000000 0.000000 0.000000 0.000000 0.000000 39.587946 -0.688105 6.648300 128.140956 70.838826 -172.237598 -15.618267 20.343286 -45.385770 42.239461 -4.906176 30.783639 0.000000 0.000000 0.000000 0.000000 0.000000 0.000000 2.897958 -2.245271 20.166668 -2.402116 0.466968 -0.836610 -2.324052 -19.123471 -9.861932 0.000000 0.000000 0.000000 3.570403 -2.488400 20.311419 -2.546022 1.295466 -0.829880 2.015303 0.514058 -3.351750 0.000000 0.000000 0.000000
39.665235 69.311437 316.050760 -0.945827 1.463238 -20.245578 0.432421 -0.112679 20.244430 0.424801 0.048952 0.017664 -1.542373 -1.746482 0.243975 0.000000 0.000000 0.000000 -1.841732 0.272237 -0.397073 2.680144 -2.752149 0.323338 -0.079724 -0.805945 -0.170432 3.194684 -0.431710 -0.162790 0.000000 0.000000 0.000000 0.000000 0.000000 0.000000 52.166925 7.916028 6.000086 136.808887 62.585494 154.922091 -9.850003 11.990429 -44.366776 26.988189 -3.220990 26.124221 0.000000 0.000000 0.000000 0.000000 0.000000 0.000000 2.955152 -2.250748 21.041048 -2.767265 -0.106816 -0.804261 -5.753597 -29.047614 -15.133441 0.000000 0.000000 0.000000 3.650063 -2.433964 21.203360 -2.907895 0.890232 -0.815066 2.316203 0.680524 -3.692657 0.000000 0.000000 0.000000
39.712503 69.433570 315.936499 -0.843926 1.711439 -21.108803 0.397336 -0.135808 21.111003 0.387189 0.228498 0.019982 -1.844972 -1.826511 0.105372 0.000000 0.000000 0.000000 -1.612895 0.323706 -0.526039 2.756062 -2.706786 0.365904 -1.072511 -1.970115 -0.121864 4.304282 -0.112008 -0.206493 0.000000 0.000000 0.000000 0.000000 0.000000 0.000000 63.684986 15.891444 3.597791 136.965019 55.763560 130.108255 -4.768080 6.886406 -40.930161 17.588162 -5.446846 24.683889 0.000000 0.000000 0.000000 0.000000 0.000000 0.000000 3.066084 -2.273327 21.891423 -3.213223 -0.648750 -0.796540 -23.635354 -52.359901 -35.637327 0.000000 0.000000 0.000000 3.764709 -2.382886 22.064304 -3.247727 0.429413 -0.788331 2.499559 0.957395 -3.771459 0.000000 0.000000 0.000000
39.778786 69.593233 315.800529 -0.737745 1.999325 -21.842510 0.367329 -0.193469 21.847398 0.327762 0.367986 0.019801 -2.032730 -1.741761 -0.083601 0.000000 0.000000 0.000000 -0.736220 0.334553 -0.627206 1.994741 -2.063843 0.394056 -1.359541 -3.008576 -0.059740 5.003439 -0.812181 -0.209298 0.000000 0.000000 0.000000 0.000000 0.000000 0.000000 72.819893 21.917874 0.451161 134.307620 51.129087 112.867823 -6.294457 2.155554 -46.836067 14.757013 -4.055931 30.525231 0.000000 0.000000 0.000000 0.000000 0.000000 0.000000 3.225889 -2.364630 22.634148 -3.560876 -1.158789 -0.780117 -37.009375 -59.360069 -49.384143 0.000000 0.000000 0.000000 3.888417 -2.394070 22.802361 -3.583038 -0.040747 -0.761502 2.600657 1.335435 -3.541401 0.000000 0.000000 0.000000
39.851376 69.764007 315.665641 -0.641480 2.288979 -22.386167 0.309082 -0.258140 22.391322 0.252192 0.466845 0.016235 -2.018830 -1.586246 -0.283579 0.000000 0.000000 0.000000 -0.149532 0.100959 -0.650424 1.661758 -0.808058 0.306448 -1.478259 -4.207240 0.046268 4.509911 0.612537 -0.405326 0.000000 0.000000 0.000000 0.000000 0.000000 0.000000 80.867319 25.055740 -1.861380 131.311935 47.739868 100.569893 -3.188109 -1.070141 -43.423807 11.354866 -8.566876 28.406666 0.000000 0.000000 0.000000 0.000000 0.000000 0.000000 3.424727 -2.514732 23.212008 -3.799821 -1.561214 -0.763822 -36.145306 -59.214129 -47.931687 0.000000 0.000000 0.000000 4.017925 -2.419937 23.352842 -3.857847 -0.535557 -0.720394 2.583123 1.790687 -3.108968 0.000000 0.000000 0.000000
39.921943 69.945013 315.530842 -0.565756 2.573496 -22.725497 0.262658 -0.325417 22.730275 0.170328 0.525503 0.011086 -1.843808 -1.399919 -0.474535 0.000000 0.000000 0.000000 -0.311824 -0.174378 -0.656346 2.269412 -0.055547 0.193781 -0.954359 -4.052918 0.274856 3.383270 1.478071 -0.655464 0.000000 0.000000 0.000000 0.000000 0.000000 0.000000 87.037358 27.053007 -3.741600 128.116450 46.798739 94.497681 -4.741683 -3.270774 -46.088097 14.691784 -4.448103 33.033817 0.000000 0.000000 0.000000 0.000000 0.000000 0.000000 3.648401 -2.732666 23.608883 -3.976762 -1.756347 -0.771028 -21.918570 -51.394793 -32.641792 0.000000 0.000000 0.000000 4.128258 -2.509041 23.699819 -3.975143 -0.959944 -0.662408 2.462624 2.213167 -2.703405 0.000000 0.000000 0.000000
39.983889 70.112098 315.413365 -0.512641 2.811274 -22.861219 0.221955 -0.384402 22.864866 0.089136 0.521677 0.004434 -1.544106 -1.161702 -0.642408 0.000000 0.000000 0.000000 -0.930826 -0.454827 -0.644574 3.478712 0.458630 0.041334 -0.265752 -4.063875 0.463302 2.895899 2.551314 -1.025974 0.000000 0.000000 0.000000 0.000000 0.000000 0.000000 91.005731 28.322787 -5.132964 125.030818 46.804986 92.972109 -3.042153 -6.488852 -45.342106 13.182783 -4.873286 32.014150 0.000000 0.000000 0.000000 0.000000 0.000000 0.000000 3.851685 -3.002430 23.818811 -4.043579 -1.726086 -0.796033 -7.216234 -32.358878 -16.120473 0.000000 0.000000 0.000000 4.206944 -2.547937 23.830115 -4.031731 -1.402507 -0.588726 2.303178 2.617200 -2.320522 0.000000 0.000000 0.000000
40.029929 70.241866 315.328630 -0.489382 2.972859 -22.852580 0.201564 -0.410981 22.855858 0.022130 0.491627 -0.001605 -1.259256 -0.898654 -0.788162 0.000000 0.000000 0.000000 -2.578569 -0.616753 -0.671536 6.019776 -0.129906 -0.093183 -0.253382 -2.107848 0.743186 2.658287 3.863437 -1.664555 0.000000 0.000000 0.000000 0.000000 0.000000 0.000000 93.617013 29.253852 -6.249450 122.421569 47.716714 93.660916 -1.406635 -8.113870 -43.800065 10.891345 -6.428048 30.084678 0.000000 0.000000 0.000000 0.000000 0.000000 0.000000 3.989689 -3.283842 23.883030 -3.956718 -1.530497 -0.820966 -1.276117 -15.419133 -8.084792 0.000000 0.000000 0.000000 4.234843 -2.566714 23.805380 -4.059088 -1.741342 -0.529106 2.190738 2.919797 -1.988646 0.000000 0.000000 0.000000
40.072511 70.324129 315.281206 -0.465433 3.063068 -22.780863 0.172925 -0.377598 22.784395 -0.012800 0.461113 -0.004243 -1.045913 -0.824284 -0.860526 0.000000 0.000000 0.000000 -3.531980 -0.981151 -0.642186 7.110073 -0.217379 -0.173218 0.116464 -0.585546 0.852280 2.330422 3.787381 -1.946580 0.000000 0.000000 0.000000 0.000000 0.000000 0.000000 95.375534 30.431313 -7.591594 120.562810 49.006406 94.224276 -1.439287 -9.095680 -44.213951 9.739601 -6.378150 30.088255 0.000000 0.000000 0.000000 0.000000 0.000000 0.000000 4.073145 -3.409221 23.849170 -3.990087 -1.448426 -0.843276 0.417234 -7.915838 -5.024493 0.000000 0.000000 0.000000 4.214838 -2.567491 23.713784 -4.119587 -1.940402 -0.503899 2.166442 3.090305 -1.714013 0.000000 0.000000 0.000000
